#N canvas 0 22 685 434 10;
#X obj 147 276 *~;
#X obj 297 288 *~;
#X obj 111 37 inlet~;
#X obj 160 40 inlet~;
#X obj 246 191 - 1;
#X floatatom 246 243 5 0 0 0 - - -;
#X obj 246 221 * -1;
#X floatatom 207 243 5 0 0 0 - - -;
#X text 27 36 Wet inlet;
#X obj 206 343 +~;
#X obj 206 386 outlet~;
#X text 151 17 Dry inlet;
#X text 245 18 Mix;
#X obj 249 73 f \$1;
#X obj 245 41 inlet;
#X obj 306 40 loadbang;
#X connect 0 0 9 0;
#X connect 1 0 9 1;
#X connect 2 0 0 0;
#X connect 3 0 1 0;
#X connect 4 0 6 0;
#X connect 5 0 1 1;
#X connect 6 0 5 0;
#X connect 7 0 0 1;
#X connect 9 0 10 0;
#X connect 13 0 4 0;
#X connect 13 0 7 0;
#X connect 14 0 13 0;
#X connect 15 0 13 0;
