#N canvas 486 14 840 691 10;
#X obj 353 226 outlet~ piezoInput;
#X obj 211 225 outlet~ pickupInput;
#X obj 620 266 readsf~;
#X msg 620 237 open sounds/dinnertable.wav \, 1;
#X obj 751 271 bng 15 250 50 0 empty empty empty 17 7 0 10 -262144
-1 -1;
#X obj 276 85 adc~;
#X obj 212 174 lop~ 2000;
#X obj 622 95 readsf~;
#X obj 754 97 bng 15 250 50 0 empty empty empty 17 7 0 10 -262144 -1
-1;
#X msg 622 66 open sounds/clicks.wav \, 1;
#X obj 622 200 hip~ 500;
#X obj 622 155 lop~ 5000;
#X text 621 17 Sounds for development withoutthe table;
#X text 207 21 Left input: pick-up signalRight input: piezo input
;
#X text 23 108 Filters out some buzz from the pick up;
#X connect 2 1 4 0;
#X connect 3 0 2 0;
#X connect 4 0 3 0;
#X connect 5 0 6 0;
#X connect 5 1 0 0;
#X connect 6 0 1 0;
#X connect 7 0 11 0;
#X connect 7 1 8 0;
#X connect 8 0 9 0;
#X connect 9 0 7 0;
#X connect 11 0 10 0;
