#N canvas 660 14 680 666 10;
#X obj 263 365 outlet~ piezoInput;
#X obj 126 364 outlet~ pickupInput;
#X text 75 34 TO DO: ADC to receive DinnerTable signals in PD;
#X obj 179 132 readsf~;
#X msg 179 103 open sounds/dinnertable.wav \, 1;
#X obj 612 71 bng 15 250 50 0 empty empty empty 17 7 0 10 -262144 -1
-1;
#X obj 104 102 adc~;
#X obj 283 283 dac~;
#X obj 168 285 lop~ 2000;
#X connect 3 0 8 0;
#X connect 3 1 5 0;
#X connect 4 0 3 0;
#X connect 5 0 4 0;
#X connect 8 0 1 0;
