#N canvas 642 23 638 755 10;
#X obj 357 318 outlet out;
#X obj 88 163 t b f;
#X obj 29 195 expr if($f1<$f2 \, $f2 \, $f1);
#X obj 200 207 t b f;
#X obj 141 239 expr if($f1>$f2 \, $f2 \, $f1);
#X obj 353 264 expr (($f5-$f4)/($f3-$f2))*($f1-$f2)+$f4;
#X obj 27 9 inlet in;
#X obj 113 10 inlet min_in;
#X obj 26 136 f;
#X obj 199 12 inlet max_in;
#X obj 292 12 inlet min_out;
#X obj 431 16 inlet max_out;
#X obj 112 136 f \$1;
#X obj 199 140 f \$2;
#X obj 339 139 f \$3;
#X obj 456 137 f \$4;
#X floatatom 55 254 5 0 0 0 - - -;
#X floatatom 39 101 5 0 0 0 - - -;
#X floatatom 144 113 5 0 0 0 - - -;
#X floatatom 234 109 5 0 0 0 - - -;
#X floatatom 357 111 5 0 0 0 - - -;
#X floatatom 484 103 5 0 0 0 - - -;
#X floatatom 143 281 5 0 0 0 - - -;
#X floatatom 372 296 5 0 0 0 - - -;
#X obj 347 174 t b f;
#X obj 471 175 t b f;
#X obj 159 57 loadbang;
#X connect 1 0 2 0;
#X connect 1 1 2 1;
#X connect 2 0 4 0;
#X connect 2 0 16 0;
#X connect 3 0 4 0;
#X connect 3 1 4 1;
#X connect 3 1 5 2;
#X connect 4 0 5 0;
#X connect 4 0 22 0;
#X connect 5 0 0 0;
#X connect 5 0 23 0;
#X connect 6 0 8 0;
#X connect 7 0 12 0;
#X connect 8 0 2 0;
#X connect 9 0 13 0;
#X connect 10 0 14 0;
#X connect 11 0 15 0;
#X connect 12 0 1 0;
#X connect 12 0 5 1;
#X connect 13 0 3 0;
#X connect 14 0 24 0;
#X connect 15 0 25 0;
#X connect 17 0 8 0;
#X connect 18 0 12 0;
#X connect 19 0 13 0;
#X connect 20 0 14 0;
#X connect 21 0 15 0;
#X connect 24 0 5 0;
#X connect 24 1 5 3;
#X connect 25 0 5 0;
#X connect 25 1 5 4;
#X connect 26 0 12 0;
#X connect 26 0 13 0;
#X connect 26 0 14 0;
#X connect 26 0 15 0;
