#N canvas -6 14 638 691 10;
#X obj 150 -158 inlet~ sound1;
#X obj 263 -158 inlet~ sound2;
#X obj 329 60 outlet~ morphOutput;
#N canvas 324 31 450 300 processing-block 0;
#X obj 102 119 inlet~ wet;
#X obj 193 118 inlet~ dry;
#X obj 108 164 xsyn~ 10;
#X obj 105 220 outlet~;
#X obj 233 185 block~ 2048;
#X obj 105 196 *~ 100;
#X connect 0 0 2 0;
#X connect 1 0 2 1;
#X connect 2 0 5 0;
#X connect 5 0 3 0;
#X restore 150 -45 pd processing-block;
#X obj 329 19 dt-drywet 0.1;
#X obj 406 -156 inlet drywet;
#X obj 263 -130 *~ 150;
#X text 315 -131 scaling factor;
#X text 417 19 controls the string/bubbles rate;
#X text 14 -46 morph computing block;
#X connect 0 0 3 0;
#X connect 0 0 4 1;
#X connect 1 0 6 0;
#X connect 3 0 4 0;
#X connect 4 0 2 0;
#X connect 5 0 4 2;
#X connect 6 0 3 1;
