#N canvas 642 23 638 755 10;
#X declare -lib zexy;
#X declare -lib zexy;
#X declare -lib zexy;
#X declare -lib zexy;
#X obj 169 165 dt-pickupFeatures;
#X obj 288 163 dt-piezoFeatures;
#X obj 169 113 dt-dinnerTableInputs;
#X obj 169 213 dt-synthMappings;
#X obj 106 282 dt-granularSynth sounds/bubble.wav;
#X obj 107 520 dac~;
#X obj 108 351 dt-morph;
#X obj 131 320 r~ pickupInput;
#X obj 179 141 s~ pickupInput;
#X obj 109 418 dt-reverb;
#X obj 343 284 dt-trigger;
#X obj 256 420 dt-reverb;
#X obj 259 362 *~ 0.8;
#X connect 0 0 3 0;
#X connect 0 1 3 1;
#X connect 0 2 3 2;
#X connect 0 3 3 3;
#X connect 0 4 3 4;
#X connect 1 0 9 2;
#X connect 1 0 10 0;
#X connect 1 0 11 2;
#X connect 1 1 3 6;
#X connect 1 1 9 1;
#X connect 1 1 10 1;
#X connect 1 1 11 1;
#X connect 1 2 10 2;
#X connect 2 0 0 0;
#X connect 2 0 8 0;
#X connect 2 1 1 0;
#X connect 3 0 4 1;
#X connect 3 1 4 2;
#X connect 3 2 4 3;
#X connect 3 3 6 2;
#X connect 4 0 6 0;
#X connect 6 0 9 0;
#X connect 7 0 6 1;
#X connect 9 0 5 0;
#X connect 9 0 5 1;
#X connect 10 0 12 0;
#X connect 11 0 5 0;
#X connect 11 0 5 1;
#X connect 12 0 11 0;
