#N canvas 4 23 638 755 10;
#X obj 128 -158 inlet~ sound1;
#X obj 238 -158 inlet~ sound2;
#X obj 247 129 outlet~ morphOutput;
#N canvas 334 41 450 300 processing-block 0;
#X obj 102 119 inlet~ wet;
#X obj 193 118 inlet~ dry;
#X obj 108 164 xsyn~ 10;
#X obj 105 220 outlet~;
#X obj 233 185 block~ 2048;
#X obj 105 196 *~ 130;
#X connect 0 0 2 0;
#X connect 1 0 2 1;
#X connect 2 0 5 0;
#X connect 5 0 3 0;
#X restore 245 -29 pd processing-block;
#X obj 269 35 dt-drywet 0.1;
#X obj 469 -129 inlet drywet;
#X obj 238 -79 *~ 150;
#X connect 0 0 3 0;
#X connect 0 0 4 1;
#X connect 1 0 6 0;
#X connect 3 0 4 0;
#X connect 4 0 2 0;
#X connect 5 0 4 2;
#X connect 6 0 3 1;
