#N canvas 554 23 683 691 10;
#X declare -lib zexy;
#X declare -lib zexy;
#X declare -lib zexy;
#X declare -lib zexy;
#X obj 169 165 dt-pickupFeatures;
#X obj 288 163 dt-piezoFeatures;
#X obj 169 113 dt-dinnerTableInputs;
#X obj 169 213 dt-synthMappings;
#X obj 106 282 dt-granularSynth sounds/bubble.wav;
#X msg -40 175 sounds/bubble.wav;
#X msg -8 198 sounds/birds.wav;
#X msg 9 218 sounds/brass2.wav;
#X msg 35 238 sounds/bus.wav;
#X obj 107 520 dac~;
#X obj 108 351 dt-morph;
#X obj 131 320 r~ pickupInput;
#X obj 187 139 s~ pickupInput;
#X obj 109 418 dt-reverb;
#X obj 343 284 dt-trigger;
#X obj 256 420 dt-reverb;
#X obj 259 362 *~ 0.3;
#X connect 0 0 3 0;
#X connect 0 1 3 1;
#X connect 0 2 3 2;
#X connect 0 3 3 3;
#X connect 0 4 3 4;
#X connect 1 0 13 2;
#X connect 1 0 14 0;
#X connect 1 0 15 2;
#X connect 1 1 3 6;
#X connect 1 1 13 1;
#X connect 1 1 14 1;
#X connect 1 1 15 1;
#X connect 2 0 0 0;
#X connect 2 0 12 0;
#X connect 2 1 1 0;
#X connect 3 0 4 1;
#X connect 3 1 4 2;
#X connect 3 2 4 3;
#X connect 3 3 10 2;
#X connect 4 0 10 0;
#X connect 5 0 4 0;
#X connect 6 0 4 0;
#X connect 7 0 4 0;
#X connect 8 0 4 0;
#X connect 10 0 13 0;
#X connect 11 0 10 1;
#X connect 13 0 9 0;
#X connect 13 0 9 1;
#X connect 14 0 16 0;
#X connect 15 0 9 0;
#X connect 15 0 9 1;
#X connect 16 0 15 0;
