#N canvas 0 24 1366 719 10;
#X obj 206 118 dt-pickupFeatures;
#X obj 539 120 dt-piezoFeatures;
#X obj 356 44 dt-dinnerTableInputs;
#X obj 206 185 dt-synthMappings;
#X obj 139 256 dt-granularSynth sounds/bubble.wav;
#X obj 377 452 dac~;
#X obj 139 339 dt-morph;
#X obj 161 286 r~ pickupInput;
#X obj 366 68 s~ pickupInput;
#X obj 316 386 dt-reverb;
#X obj 574 253 dt-trigger;
#X obj 439 386 dt-reverb;
#X obj 300 207 s drywet;
#X obj 184 316 r drywet;
#X text 314 18 Input of the pickuos and the microphone;
#X text 328 119 Computes features of the signals;
#X text 27 187 Maps features to parameters;
#X text 13 258 Granular Synthesis;
#X text 69 339 Morphing;
#X text 652 253 Triggers samples;
#X text 513 386 Reverb is applied to both signals;
#X connect 0 0 3 0;
#X connect 0 1 3 1;
#X connect 0 2 3 2;
#X connect 0 3 3 3;
#X connect 0 4 3 4;
#X connect 1 0 9 2;
#X connect 1 0 10 0;
#X connect 1 0 11 2;
#X connect 1 1 9 1;
#X connect 1 1 11 1;
#X connect 1 2 10 1;
#X connect 2 0 0 0;
#X connect 2 0 8 0;
#X connect 2 1 1 0;
#X connect 3 0 4 1;
#X connect 3 1 4 2;
#X connect 3 2 4 3;
#X connect 3 3 12 0;
#X connect 4 0 6 0;
#X connect 6 0 9 0;
#X connect 7 0 6 1;
#X connect 9 0 5 0;
#X connect 9 0 5 1;
#X connect 10 0 11 0;
#X connect 11 0 5 0;
#X connect 11 0 5 1;
#X connect 13 0 6 2;
