#N canvas 673 782 683 691 10;
#X obj 169 165 dt-pickupFeatures;
#X obj 288 163 dt-piezoFeatures;
#X obj 436 165 dt-onsetDetection;
#X obj 169 113 dt-dinnerTableInputs;
#X obj 169 213 dt-synthMappings;
#X obj 106 282 dt-granularSynth sounds/bubble.wav;
#X msg 20 197 sounds/bubble.wav;
#X msg 52 220 sounds/birds.wav;
#X connect 0 0 4 0;
#X connect 0 1 4 1;
#X connect 0 2 4 2;
#X connect 0 3 4 3;
#X connect 0 4 4 4;
#X connect 1 0 4 5;
#X connect 1 1 4 6;
#X connect 3 0 0 0;
#X connect 3 1 1 0;
#X connect 4 0 5 1;
#X connect 4 1 5 2;
#X connect 4 2 5 3;
#X connect 6 0 5 0;
#X connect 7 0 5 0;
