#N canvas 358 23 840 703 10;
#X declare -lib zexy;
#X declare -lib zexy;
#X obj 169 165 dt-pickupFeatures;
#X obj 288 163 dt-piezoFeatures;
#X obj 436 165 dt-onsetDetection;
#X obj 169 113 dt-dinnerTableInputs;
#X obj 169 213 dt-synthMappings;
#X obj 106 282 dt-granularSynth sounds/bubble.wav;
#X msg -40 175 sounds/bubble.wav;
#X msg -8 198 sounds/birds.wav;
#X msg 9 218 sounds/brass2.wav;
#X msg 35 238 sounds/bus.wav;
#X obj 109 330 dac~;
#X connect 0 0 4 0;
#X connect 0 1 4 1;
#X connect 0 2 4 2;
#X connect 0 3 4 3;
#X connect 0 4 4 4;
#X connect 1 1 4 6;
#X connect 3 0 0 0;
#X connect 3 1 1 0;
#X connect 4 0 5 1;
#X connect 4 1 5 2;
#X connect 4 2 5 3;
#X connect 5 0 10 0;
#X connect 5 0 10 1;
#X connect 6 0 5 0;
#X connect 7 0 5 0;
#X connect 8 0 5 0;
#X connect 9 0 5 0;
