#N canvas 373 25 840 703 10;
#X obj 167 356 s readSpeed;
#X obj 256 356 s playSpeed;
#N canvas 335 222 450 300 pickupFeatures 0;
#X obj 52 39 inlet~ pickupInput;
#X obj 22 224 outlet spectralCentroid;
#X obj 174 225 outlet someOtherFeature;
#X obj 323 225 outlet anotherOne;
#X text 185 37 TODO: what features?;
#X restore 169 165 pd pickupFeatures;
#N canvas 163 51 696 547 dinnerTableInputs 0;
#X obj 253 355 outlet~ piezoInput;
#X obj 65 355 outlet~ pickupInput;
#X text 65 24 TO DO: ADC to receive DinnerTable signals in PD;
#X restore 169 113 pd dinnerTableInputs;
#X obj 345 356 s somethingElse;
#N canvas 636 252 450 300 piezoFeatures 0;
#X obj 46 20 inlet~ piezoInput;
#X obj 60 247 outlet feature1;
#X obj 192 245 outlet feature2;
#X text 182 20 TODO: what features should we extract?;
#X restore 292 164 pd piezoFeatures;
#N canvas 350 280 757 304 synthMappings 0;
#X obj 36 47 inlet spectralCentroid;
#X obj 190 48 inlet someOtherFeature;
#X obj 334 50 inlet anotherOne;
#X obj 23 258 outlet readSpeed;
#X obj 144 258 outlet playSpeed;
#X obj 264 258 outlet somethingElse;
#X obj 445 50 inlet piezoFeature1;
#X obj 579 50 inlet piezoFeature2;
#X text 64 14 TODO: what parameters should we control? what mappings
should we use?;
#X restore 169 191 pd synthMappings;
#N canvas 520 234 450 300 onsetDetection 0;
#X obj 44 13 inlet~ piezoInput;
#X obj 44 211 outlet class1Onset;
#X obj 173 212 outlet class2Onset;
#X obj 302 211 outlet class3Onset;
#X text 169 14 TODO: TimbreID classification \, onset detection;
#X restore 435 165 pd onsetDetection;
#X floatatom 628 240 5 0 0 0 - - -;
#X floatatom 712 240 5 0 0 0 - - -;
#X obj 529 289 dt-granularSynth sounds/bubble.wav;
#X connect 2 0 6 0;
#X connect 2 1 6 1;
#X connect 2 2 6 2;
#X connect 3 0 2 0;
#X connect 3 1 5 0;
#X connect 5 0 6 3;
#X connect 5 1 6 4;
#X connect 6 0 0 0;
#X connect 6 1 1 0;
#X connect 6 2 4 0;
#X connect 8 0 10 1;
#X connect 9 0 10 2;
