#N canvas 0 24 1366 719 10;
#X obj 169 165 dt-pickupFeatures;
#X obj 292 164 dt-piezoFeatures;
#X obj 436 165 dt-onsetDetection;
#X obj 169 113 dt-dinnerTableInputs;
#X obj 169 213 dt-synthMappings;
#X obj 117 336 dt-granularSynth sounds/birds.wav;
#X connect 0 0 4 0;
#X connect 0 1 4 1;
#X connect 0 2 4 2;
#X connect 0 3 4 3;
#X connect 0 4 4 4;
#X connect 1 0 4 5;
#X connect 1 1 4 6;
#X connect 3 0 0 0;
#X connect 3 1 1 0;
#X connect 4 0 5 2;
#X connect 4 1 5 1;
#X connect 4 3 5 3;
