#N canvas 0 24 1366 719 10;
#X floatatom 212 265 5 0 0 0 - - -, f 5;
#X floatatom 283 267 5 0 0 0 - - -, f 5;
#X obj 115 319 dt-granularSynth sounds/bubble.wav;
#X obj 169 165 dt-pickupFeatures;
#X obj 292 164 dt-piezoFeatures;
#X obj 436 165 dt-onsetDetection;
#X obj 169 113 dt-dinnerTableInputs;
#X obj 169 213 dt-synthMappings;
#X connect 0 0 2 1;
#X connect 1 0 2 2;
#X connect 3 0 7 0;
#X connect 3 1 7 1;
#X connect 3 2 7 2;
#X connect 4 0 7 3;
#X connect 4 1 7 4;
#X connect 6 0 3 0;
#X connect 6 1 4 0;
#X connect 7 0 0 0;
#X connect 7 2 1 0;
