#N canvas 243 23 840 703 10;
#X obj 167 356 s readSpeed;
#X obj 256 356 s playSpeed;
#X obj 345 356 s somethingElse;
#X floatatom 627 228 5 0 0 0 - - -;
#X floatatom 712 240 5 0 0 0 - - -;
#X obj 537 266 dt-granularSynth sounds/bubble.wav;
#X obj 169 165 dt-pickupFeatures;
#X obj 292 164 dt-piezoFeatures;
#X obj 436 165 dt-onsetDetection;
#X obj 169 113 dt-dinnerTableInputs;
#X obj 169 213 dt-synthMappings;
#X connect 3 0 5 1;
#X connect 4 0 5 2;
#X connect 6 0 10 0;
#X connect 6 1 10 1;
#X connect 6 2 10 2;
#X connect 7 0 10 3;
#X connect 7 1 10 4;
#X connect 9 0 6 0;
#X connect 9 1 7 0;
#X connect 10 0 0 0;
#X connect 10 1 1 0;
#X connect 10 2 2 0;
