#N canvas 0 24 1360 719 10;
#X obj 52 39 inlet~ pickupInput;
#X obj 49 463 outlet spectralCentroid;
#X obj 587 51 metro 20;
#N canvas 0 24 1366 719 mfccs 0;
#X obj 473 356 mfcc~;
#X obj 500 386 t l l;
#X obj 396 414 list prepend 0;
#X obj 500 446 s mfcc-graph;
#N canvas 423 174 450 300 (subpatch) 0;
#X array mfcc-graph 38 float 3 black black;
#A 0 1 0.450142 0.0163833 0.210878 0.279094 0.147934 0.144913 0.194751
0.173327 0.149167 0.193529 0.222709 0.205625 0.175713 0.15973 0.128135
0.108262 0.116278 0.116806 0.106535 0.106104 0.11898 0.136355 0.14269
0.128825 0.0921144 0.0669512 0.0474254 0.0298526 0.0253428 0.0279726
0.00681247 0.00066204 0.0248208 0.0447561 0.0388262 0.0302192 0.0202755
;
#X coords 0 1 38 -1 200 140 1;
#X restore 109 160 graph;
#X obj 616 356 list length;
#X obj 616 378 change;
#X msg 616 401 \; mfcc-graph resize \$1 \;;
#X obj 476 115 inlet~;
#X obj 640 120 inlet;
#X obj 562 114 inlet;
#X obj 667 252 tabread mfcc-graph;
#X floatatom 339 281 5 0 0 0 - - -, f 5;
#X obj 340 368 outlet;
#X floatatom 333 184 5 0 0 0 - - -, f 5;
#X connect 0 0 1 0;
#X connect 1 0 2 0;
#X connect 1 1 5 0;
#X connect 2 0 3 0;
#X connect 5 0 6 0;
#X connect 6 0 7 0;
#X connect 8 0 0 0;
#X connect 9 0 0 0;
#X connect 9 0 14 0;
#X connect 10 0 14 0;
#X connect 11 0 12 0;
#X connect 12 0 13 0;
#X connect 14 0 11 0;
#X coords 0 -1 1 1 292 236 1 100 100;
#X restore 238 175 pd mfccs;
#X obj 586 6 loadbang;
#N canvas 0 24 1360 719 zcr 0;
#X obj 476 115 inlet~;
#X obj 640 120 inlet;
#X obj 142 386 outlet;
#X floatatom 137 164 5 0 0 0 - - -, f 5;
#X obj 510 319 zeroCrossing~ 1024;
#X floatatom 522 388 5 0 0 0 - - -, f 5;
#X obj 522 417 / 2048;
#X obj 522 362 * 44100;
#X text 125 132 FCR based F0;
#X obj 484 181 lop~ 200;
#X obj 522 450 median_n 10;
#X connect 0 0 9 0;
#X connect 1 0 4 0;
#X connect 3 0 2 0;
#X connect 4 0 7 0;
#X connect 5 0 6 0;
#X connect 6 0 10 0;
#X connect 7 0 5 0;
#X connect 9 0 4 0;
#X connect 10 0 3 0;
#X coords 0 -1 1 1 122 106 1 100 100;
#X restore 577 182 pd zcr;
#X obj 581 463 outlet zrc;
#X obj 239 466 outlet mfcc;
#N canvas 0 24 1366 719 centroid 0;
#X obj 476 115 inlet~;
#X obj 640 120 inlet;
#X obj 137 252 outlet;
#X floatatom 137 164 5 0 0 0 - - -, f 5;
#X obj 510 319 specCentroid~;
#X text 126 120 Centroid;
#X connect 0 0 4 0;
#X connect 1 0 4 0;
#X connect 3 0 2 0;
#X connect 4 0 3 0;
#X coords 0 -1 1 1 122 106 1 100 100;
#X restore 45 181 pd centroid;
#N canvas 0 24 1366 719 kurtosis 0;
#X obj 476 115 inlet~;
#X obj 640 120 inlet;
#X obj 137 252 outlet;
#X floatatom 137 164 5 0 0 0 - - -, f 5;
#X text 126 120 kurtosis;
#X obj 510 319 specKurtosis~;
#X connect 0 0 5 0;
#X connect 1 0 5 0;
#X connect 3 0 2 0;
#X connect 5 0 3 0;
#X coords 0 -1 1 1 122 106 1 100 100;
#X restore 737 180 pd kurtosis;
#X obj 738 465 outlet kurtosis;
#X obj 884 467 outlet brightness;
#N canvas 0 24 1366 719 brightness 0;
#X obj 232 34 inlet~;
#X obj 396 39 inlet;
#X obj 137 252 outlet;
#X floatatom 137 164 5 0 0 0 - - -, f 5;
#X obj 266 238 specBrightness~;
#X text 126 120 Brightness;
#X connect 0 0 4 0;
#X connect 1 0 4 0;
#X connect 3 0 2 0;
#X connect 4 0 3 0;
#X coords 0 -1 1 1 122 106 1 100 100;
#X restore 881 179 pd brightness;
#X msg 380 140 2;
#X obj 779 312 vsl 15 128 0 2000 0 0 empty empty empty 0 -9 0 10 -262144
-1 -1 102 1;
#X obj 910 312 vsl 15 128 0 1 0 0 empty empty empty 0 -9 0 10 -262144
-1 -1 5847 1;
#X obj 94 312 vsl 15 128 0 5000 0 0 empty empty empty 0 -9 0 10 -262144
-1 -1 4908 1;
#X connect 0 0 3 0;
#X connect 0 0 8 0;
#X connect 0 0 5 0;
#X connect 0 0 9 0;
#X connect 0 0 12 0;
#X connect 2 0 3 2;
#X connect 2 0 8 1;
#X connect 2 0 5 1;
#X connect 2 0 9 1;
#X connect 2 0 12 1;
#X connect 3 0 7 0;
#X connect 4 0 2 0;
#X connect 4 0 13 0;
#X connect 5 0 6 0;
#X connect 8 0 1 0;
#X connect 8 0 16 0;
#X connect 9 0 10 0;
#X connect 9 0 14 0;
#X connect 12 0 11 0;
#X connect 12 0 15 0;
#X connect 13 0 3 1;
