#N canvas 0 22 1276 691 10;
#X declare -lib zexy;
#X obj 146 -99 inlet~ piezoInput;
#X obj 478 407 outlet feature1;
#X obj 145 407 outlet feature2;
#X text 350 -86 TODO: what features should we extract?;
#X obj 673 -70 metro 20;
#N canvas 0 22 1276 691 mfccs 1;
#X obj 473 356 mfcc~;
#X obj 500 386 t l l;
#X obj 396 414 list prepend 0;
#N canvas 423 174 450 300 (subpatch) 0;
#X array mfcc-graph2 38 float 3;
#A 0 1 -0.152354 0.359455 0.117858 0.177314 0.0922598 0.0448404 0.0467855
-0.0419427 0.0163463 -0.0971877 0.0128618 -0.109601 -0.0210579 -0.0410822
-0.00106616 -0.0399853 0.025889 -0.00341957 0.0449603 0.0241218 0.0384722
0.0612471 0.0617915 0.0623983 0.0697799 0.0651293 0.0492857 0.0336698
0.0707933 0.00547796 0.0207051 -0.0230605 -0.00760279 -0.000856378
-0.0306968 -0.0351346 -0.011999;
#X coords 0 1 38 -1 200 140 1;
#X restore 109 160 graph;
#X obj 616 356 list length;
#X obj 616 378 change;
#X obj 476 115 inlet~;
#X obj 640 120 inlet;
#X obj 562 114 inlet;
#X floatatom 339 281 5 0 0 0 - - -;
#X obj 340 368 outlet;
#X floatatom 333 184 5 0 0 0 - - -;
#X obj 667 252 tabread mfcc-graph2;
#X obj 500 446 s mfcc-graph2;
#X msg 616 401 \; mfcc-graph2 resize 10 \;;
#X connect 0 0 1 0;
#X connect 1 0 2 0;
#X connect 1 1 4 0;
#X connect 2 0 13 0;
#X connect 4 0 5 0;
#X connect 5 0 14 0;
#X connect 6 0 0 0;
#X connect 7 0 0 0;
#X connect 7 0 11 0;
#X connect 8 0 11 0;
#X connect 9 0 10 0;
#X connect 11 0 12 0;
#X connect 12 0 9 0;
#X coords 0 -1 1 1 292 236 1 100 100;
#X restore 140 62 pd mfccs;
#X obj 672 -115 loadbang;
#N canvas 0 24 1360 719 zcr 0;
#X obj 476 115 inlet~;
#X obj 640 120 inlet;
#X obj 142 386 outlet;
#X floatatom 137 164 5 0 0 0 - - -;
#X obj 510 319 zeroCrossing~ 1024;
#X floatatom 522 388 5 0 0 0 - - -;
#X obj 522 417 / 2048;
#X obj 522 362 * 44100;
#X text 125 132 FCR based F0;
#X obj 484 181 lop~ 200;
#X obj 522 450 median_n 10;
#X connect 0 0 9 0;
#X connect 1 0 4 0;
#X connect 3 0 2 0;
#X connect 4 0 7 0;
#X connect 5 0 6 0;
#X connect 6 0 10 0;
#X connect 7 0 5 0;
#X connect 9 0 4 0;
#X connect 10 0 3 0;
#X coords 0 -1 1 1 122 106 1 100 100;
#X restore 849 85 pd zcr;
#N canvas 0 24 1366 719 kurtosis 0;
#X obj 476 115 inlet~;
#X obj 640 120 inlet;
#X obj 137 252 outlet;
#X floatatom 137 164 5 0 0 0 - - -;
#X text 126 120 kurtosis;
#X obj 510 319 specKurtosis~;
#X connect 0 0 5 0;
#X connect 1 0 5 0;
#X connect 3 0 2 0;
#X connect 5 0 3 0;
#X coords 0 -1 1 1 122 106 1 100 100;
#X restore 1009 83 pd kurtosis;
#N canvas 0 24 1366 719 brightness 0;
#X obj 232 34 inlet~;
#X obj 396 39 inlet;
#X obj 137 252 outlet;
#X floatatom 137 164 5 0 0 0 - - -;
#X obj 266 238 specBrightness~;
#X text 126 120 Brightness;
#X connect 0 0 4 0;
#X connect 1 0 4 0;
#X connect 3 0 2 0;
#X connect 4 0 3 0;
#X coords 0 -1 1 1 122 106 1 100 100;
#X restore 1153 82 pd brightness;
#X obj 1051 215 vsl 15 128 0 2000 0 0 empty empty empty 0 -9 0 10 -262144
-1 -1 12 1;
#X obj 1182 215 vsl 15 128 0 1 0 0 empty empty empty 0 -9 0 10 -262144
-1 -1 7609 1;
#N canvas 0 22 1276 691 mfccs 0;
#X obj 711 432 list prepend 0;
#N canvas 423 174 450 300 (subpatch) 0;
#X array bark-graph 38 float 3;
#A 0 0.0160669 0.0631342 0.22286 0 0.0283228 0.0162522 0 0.111281 0.171985
0 0 0 0 0 0 0 0 0.00307382 0.0527284 0.0755868 0.301342 0 0.0111014
0.0290836 0.0785985 0 0 0.064222 0 0 0 0 0 0 0 0 0 0;
#X coords 0 1 38 -1 200 140 1;
#X restore 109 160 graph;
#X obj 476 115 inlet~;
#X obj 640 120 inlet;
#X obj 562 114 inlet;
#X obj 503 520 outlet;
#X floatatom 676 180 5 0 0 0 - - -;
#X obj 503 317 bark~;
#X obj 325 205 bng 42 250 50 0 empty empty empty 17 7 0 10 -262144
-1 -1;
#X obj 706 489 s bark-graph;
#X floatatom 543 431 5 0 0 0 - - -;
#X text 328 171 onset;
#X msg 812 199 mask 4 0.75;
#X msg 832 239 debounce 100;
#X msg 852 279 filter_range 0 20;
#X msg 792 159 thresh 7.5 14;
#X connect 0 0 9 0;
#X connect 2 0 7 0;
#X connect 3 0 6 0;
#X connect 3 0 7 0;
#X connect 7 0 8 0;
#X connect 7 1 10 0;
#X connect 7 2 0 0;
#X connect 8 0 5 0;
#X connect 12 0 7 0;
#X connect 13 0 7 0;
#X connect 14 0 7 0;
#X connect 15 0 7 0;
#X coords 0 -1 1 1 292 236 1 100 100;
#X restore 477 77 pd mfccs;
#X msg 466 19 6;
#X connect 0 0 5 0;
#X connect 0 0 7 0;
#X connect 0 0 8 0;
#X connect 0 0 9 0;
#X connect 0 0 12 0;
#X connect 4 0 5 2;
#X connect 4 0 7 1;
#X connect 4 0 8 1;
#X connect 4 0 9 1;
#X connect 6 0 4 0;
#X connect 6 0 13 0;
#X connect 8 0 10 0;
#X connect 9 0 11 0;
#X connect 11 0 2 0;
#X connect 12 0 1 0;
#X connect 13 0 5 1;
#X connect 13 0 12 2;
