#N canvas 4 23 638 755 10;
#X obj -116 103 inlet~ piezoInput;
#X obj 14 102 inlet onsets;
#X obj -100 201 bfcc~ 1024 0.5;
#X obj -94 235 list split 12;
#X obj -93 307 timbreID;
#X obj -93 278 spigot;
#X obj -22 281 spigot;
#X floatatom -119 344 5 0 0 0 - - -;
#X obj 101 100 inlet train;
#X obj -48 256 tgl 15 0 empty empty empty 17 7 0 10 -262144 -1 -1 0
1;
#X obj 189 99 inlet id;
#X obj 24 260 tgl 15 0 empty empty empty 17 7 0 10 -262144 -1 -1 0
1;
#X obj 255 99 inlet messages;
#X obj -87 451 outlet id_num;
#X connect 0 0 2 0;
#X connect 1 0 2 0;
#X connect 2 0 3 0;
#X connect 3 0 5 0;
#X connect 3 0 6 0;
#X connect 4 0 7 0;
#X connect 4 0 13 0;
#X connect 5 0 4 0;
#X connect 6 0 4 1;
#X connect 8 0 9 0;
#X connect 9 0 5 1;
#X connect 10 0 11 0;
#X connect 11 0 6 1;
#X connect 12 0 4 0;
