#N canvas 0 24 1366 719 10;
#X obj 146 -99 inlet~ piezoInput;
#X obj 470 558 outlet feature1;
#X obj 315 558 outlet feature2;
#X obj 673 -70 metro 20;
#N canvas 0 22 1276 691 mfccs 0;
#X obj 473 356 mfcc~;
#X obj 500 386 t l l;
#X obj 396 414 list prepend 0;
#N canvas 423 174 450 300 (subpatch) 0;
#X array mfcc-graph2 20 float 3 black black;
#A 0 0 0 0 0 0 0 0 0 0 0 0 0 0 0 0 0 0 0 0 0;
#X coords 0 1 20 -1 200 140 1;
#X restore 109 160 graph;
#X obj 616 356 list length;
#X obj 616 378 change;
#X obj 476 115 inlet~;
#X obj 640 120 inlet;
#X obj 562 114 inlet;
#X floatatom 339 281 5 0 0 0 - - -, f 5;
#X obj 340 368 outlet;
#X floatatom 333 184 5 0 0 0 - - -, f 5;
#X obj 667 252 tabread mfcc-graph2;
#X obj 500 446 s mfcc-graph2;
#X msg 616 401 \; mfcc-graph2 resize 20 \;;
#X connect 0 0 1 0;
#X connect 1 0 2 0;
#X connect 1 1 4 0;
#X connect 2 0 13 0;
#X connect 4 0 5 0;
#X connect 5 0 14 0;
#X connect 6 0 0 0;
#X connect 7 0 0 0;
#X connect 7 0 11 0;
#X connect 8 0 11 0;
#X connect 9 0 10 0;
#X connect 11 0 12 0;
#X connect 12 0 9 0;
#X coords 0 -1 1 1 292 236 1 100 100;
#X restore 140 62 pd mfccs;
#X obj 672 -115 loadbang;
#N canvas 0 24 1360 719 zcr 0;
#X obj 476 115 inlet~;
#X obj 640 120 inlet;
#X obj 142 386 outlet;
#X floatatom 137 164 5 0 0 0 - - -, f 5;
#X obj 510 319 zeroCrossing~ 1024;
#X floatatom 522 388 5 0 0 0 - - -, f 5;
#X obj 522 417 / 2048;
#X obj 522 362 * 44100;
#X text 125 132 FCR based F0;
#X obj 484 181 lop~ 200;
#X obj 522 450 median_n 10;
#X connect 0 0 9 0;
#X connect 1 0 4 0;
#X connect 3 0 2 0;
#X connect 4 0 7 0;
#X connect 5 0 6 0;
#X connect 6 0 10 0;
#X connect 7 0 5 0;
#X connect 9 0 4 0;
#X connect 10 0 3 0;
#X coords 0 -1 1 1 122 106 1 100 100;
#X restore 849 63 pd zcr;
#N canvas 0 24 1366 719 kurtosis 0;
#X obj 476 115 inlet~;
#X obj 640 120 inlet;
#X obj 137 252 outlet;
#X floatatom 137 164 5 0 0 0 - - -, f 5;
#X text 126 120 kurtosis;
#X obj 510 319 specKurtosis~;
#X connect 0 0 5 0;
#X connect 1 0 5 0;
#X connect 3 0 2 0;
#X connect 5 0 3 0;
#X coords 0 -1 1 1 122 106 1 100 100;
#X restore 1009 61 pd kurtosis;
#N canvas 0 24 1366 719 brightness 0;
#X obj 232 34 inlet~;
#X obj 396 39 inlet;
#X obj 137 252 outlet;
#X floatatom 137 164 5 0 0 0 - - -, f 5;
#X obj 266 238 specBrightness~;
#X text 126 120 Brightness;
#X connect 0 0 4 0;
#X connect 1 0 4 0;
#X connect 3 0 2 0;
#X connect 4 0 3 0;
#X coords 0 -1 1 1 122 106 1 100 100;
#X restore 1153 60 pd brightness;
#X obj 1154 214 vsl 15 128 0 1 0 0 empty empty empty 0 -9 0 10 -262144
-1 -1 0 1;
#X msg 466 19 6;
#X obj 817 250 tgl 15 0 empty empty empty 17 7 0 10 -262144 -1 -1 0
1;
#X obj 845 250 tgl 15 0 empty empty empty 17 7 0 10 -262144 -1 -1 1
1;
#X msg 941 285 clear;
#X obj 777 373 dt-percClusters;
#X floatatom 777 402 5 0 0 0 - - -, f 5;
#X obj 778 557 outlet percType;
#X msg 940 319 forget;
#X msg 873 250 cluster 3;
#X msg 936 350 write perc-classes.db;
#X msg 941 250 read perc-classes.db;
#X obj 905 200 loadbang;
#X msg 817 226 0;
#X msg 845 226 1;
#X obj 830 199 loadbang;
#X text 350 -86 This block computes and display timbreId features;
#N canvas 0 22 1276 691 onset-detector 0;
#X obj 711 432 list prepend 0;
#N canvas 423 174 450 300 (subpatch) 0;
#X array bark-graph 38 float 3 black black;
#A 0 0.208585 0 0.190228 0.12553 0 0 0 0 0 0 0 0 0 0 0 0 0 0 0 0 0
0 0 0 0 0 0 0 0 0 0 0 0 0 0 0 0.034849 0;
#X coords 0 1 38 -1 200 140 1;
#X restore 109 160 graph;
#X obj 476 115 inlet~;
#X obj 640 120 inlet;
#X obj 562 114 inlet;
#X obj 503 520 outlet;
#X floatatom 676 180 5 0 0 0 - - -, f 5;
#X obj 503 317 bark~;
#X obj 325 205 bng 42 250 50 0 empty empty empty 17 7 0 10 -262144
-1 -1;
#X obj 706 489 s bark-graph;
#X floatatom 543 431 5 0 0 0 - - -, f 5;
#X text 328 171 onset;
#X msg 812 199 mask 4 0.75;
#X msg 832 239 debounce 100;
#X msg 852 279 filter_range 0 20;
#X msg 792 159 thresh 7.5 14;
#X connect 0 0 9 0;
#X connect 2 0 7 0;
#X connect 3 0 6 0;
#X connect 3 0 7 0;
#X connect 7 0 8 0;
#X connect 7 1 10 0;
#X connect 7 2 0 0;
#X connect 8 0 5 0;
#X connect 12 0 7 0;
#X connect 13 0 7 0;
#X connect 14 0 7 0;
#X connect 15 0 7 0;
#X coords 0 -1 1 1 292 236 1 100 100;
#X restore 469 62 pd onset-detector;
#X text 975 196 sound clasification;
#X connect 0 0 4 0;
#X connect 0 0 6 0;
#X connect 0 0 7 0;
#X connect 0 0 8 0;
#X connect 0 0 26 0;
#X connect 0 0 14 0;
#X connect 3 0 4 2;
#X connect 3 0 6 1;
#X connect 3 0 7 1;
#X connect 3 0 8 1;
#X connect 5 0 3 0;
#X connect 5 0 10 0;
#X connect 8 0 9 0;
#X connect 9 0 2 0;
#X connect 10 0 4 1;
#X connect 10 0 26 2;
#X connect 11 0 14 2;
#X connect 12 0 14 3;
#X connect 13 0 14 4;
#X connect 14 0 15 0;
#X connect 15 0 16 0;
#X connect 17 0 14 4;
#X connect 18 0 14 4;
#X connect 19 0 14 4;
#X connect 20 0 14 4;
#X connect 21 0 20 0;
#X connect 21 0 18 0;
#X connect 22 0 11 0;
#X connect 23 0 12 0;
#X connect 24 0 22 0;
#X connect 24 0 23 0;
#X connect 26 0 1 0;
#X connect 26 0 14 1;
