#N canvas 0 22 840 703 10;
#X obj 76 37 inlet~;
#X obj 78 343 freeverb~;
#X msg 370 343 wet \$1;
#X obj 373 319 hsl 128 15 0 1 0 0 empty empty empty -2 -8 0 10 -262144
-1 -1 0 1;
#X obj 372 432 hsl 128 15 0 1 0 0 empty empty empty -2 -8 0 10 -262144
-1 -1 8890 1;
#X obj 533 318 hsl 128 15 0 1 0 0 empty empty empty -2 -8 0 10 -262144
-1 -1 7620 1;
#X msg 530 342 roomsize \$1;
#X msg 369 456 dry \$1;
#X msg 530 282 0.6;
#X msg 369 411 0.7;
#X obj 370 222 f;
#X obj 373 119 bng 15 250 50 0 empty empty empty 17 7 0 10 -262144
-1 -1;
#X obj 340 195 bng 15 250 50 0 empty empty empty 17 7 0 10 -262144
-1 -1;
#X floatatom 370 281 5 0 0 0 - - -;
#X msg 440 82 stop;
#X obj 415 221 - 1;
#X obj 462 263 == 0;
#X obj 456 289 sel 0 1;
#X obj 522 110 f;
#X floatatom 513 84 5 0 0 0 - - -;
#X floatatom 547 144 5 0 0 0 - - -;
#X obj 369 258 /;
#X obj 310 42 inlet;
#X obj 447 43 inlet;
#X obj 78 489 outlet~;
#X obj 501 47 * 30;
#X obj 538 241 loadbang;
#X obj 367 156 metro 50;
#X obj 365 380 loadbang;
#X connect 0 0 1 0;
#X connect 0 0 1 1;
#X connect 1 0 24 0;
#X connect 1 1 24 0;
#X connect 2 0 1 0;
#X connect 3 0 2 0;
#X connect 4 0 7 0;
#X connect 5 0 6 0;
#X connect 7 0 1 0;
#X connect 8 0 5 0;
#X connect 9 0 4 0;
#X connect 10 0 15 0;
#X connect 10 0 21 0;
#X connect 11 0 18 0;
#X connect 11 0 27 0;
#X connect 13 0 16 0;
#X connect 13 0 3 0;
#X connect 14 0 27 0;
#X connect 15 0 10 1;
#X connect 16 0 17 0;
#X connect 17 1 14 0;
#X connect 18 0 20 0;
#X connect 19 0 18 1;
#X connect 20 0 10 0;
#X connect 20 0 21 1;
#X connect 21 0 13 0;
#X connect 22 0 11 0;
#X connect 23 0 25 0;
#X connect 25 0 19 0;
#X connect 26 0 8 0;
#X connect 27 0 12 0;
#X connect 27 0 10 0;
#X connect 28 0 9 0;
