#N canvas 0 24 1360 719 10;
#X obj 33 58 inlet spectralCentroid;
#X obj 395 366 outlet readSpeed;
#X obj 212 366 outlet playSpeed;
#X obj 669 362 outlet somethingElse;
#X obj 842 52 inlet piezoFeature1;
#X obj 971 51 inlet piezoFeature2;
#X text 77 15 TODO: what parameters should we control? what mappings
should we use?;
#X floatatom 210 88 5 0 0 0 - - -, f 5;
#X floatatom 210 166 5 0 0 0 - - -, f 5;
#X obj 307 247 dt-xfade 0.5 0.5;
#X floatatom 33 87 5 0 0 0 - - -, f 5;
#X obj 218 58 inlet mfcc;
#X obj 385 57 inlet zcrF0;
#X obj 542 55 inlet kurtosis;
#X obj 712 57 inlet brightness;
#X floatatom 385 85 5 0 0 0 - - -, f 5;
#X floatatom 542 83 5 0 0 0 - - -, f 5;
#X floatatom 712 91 5 0 0 0 - - -, f 5;
#X floatatom 33 163 5 0 0 0 - - -, f 5;
#X floatatom 388 162 5 0 0 0 - - -, f 5;
#X floatatom 542 166 5 0 0 0 - - -, f 5;
#X floatatom 712 164 5 0 0 0 - - -, f 5;
#X obj 533 363 outlet grainSize;
#X obj 452 204 vsl 15 128 0.1 0.2 0 0 empty empty empty 0 -9 0 10 -262144
-1 -1 12700 1;
#X obj 540 303 +, f 1;
#X obj 675 216 t b f;
#X floatatom 540 325 5 0 0 0 - - -, f 5;
#X obj 712 127 dt-linearMap 0 1 0 15;
#X obj 33 129 dt-linearMap 0 3000 1 10;
#X floatatom 307 315 5 0 0 0 - - -, f 5;
#X msg 528 258 64;
#X obj 542 129 dt-linearMap 50 300 0 200;
#X obj 210 129 dt-linearMap 0.12 1 1 256;
#X obj 373 126 dt-linearMap 90 300 1 10000;
#X connect 0 0 10 0;
#X connect 7 0 32 0;
#X connect 8 0 2 0;
#X connect 9 0 29 0;
#X connect 10 0 28 0;
#X connect 11 0 7 0;
#X connect 12 0 15 0;
#X connect 13 0 16 0;
#X connect 14 0 17 0;
#X connect 15 0 33 0;
#X connect 16 0 31 0;
#X connect 17 0 27 0;
#X connect 19 0 23 0;
#X connect 19 0 1 0;
#X connect 20 0 25 0;
#X connect 24 0 22 0;
#X connect 24 0 26 0;
#X connect 25 0 24 0;
#X connect 25 0 30 0;
#X connect 25 1 24 1;
#X connect 27 0 21 0;
#X connect 28 0 18 0;
#X connect 30 0 24 0;
#X connect 31 0 20 0;
#X connect 32 0 8 0;
#X connect 33 0 19 0;
