#N canvas 0 24 1366 719 10;
#X obj 33 58 inlet spectralCentroid;
#X obj 175 366 outlet readSpeed;
#X obj 296 367 outlet playSpeed;
#X obj 416 367 outlet somethingElse;
#X obj 842 52 inlet piezoFeature1;
#X obj 971 51 inlet piezoFeature2;
#X text 77 15 TODO: what parameters should we control? what mappings
should we use?;
#X floatatom 218 88 5 0 0 0 - - -, f 5;
#X floatatom 218 166 5 0 0 0 - - -, f 5;
#X obj 218 129 dt-linearMap 0 1 4 10;
#X obj 857 213 dt-xfade 0.5 0.5;
#X floatatom 33 87 5 0 0 0 - - -, f 5;
#X obj 218 58 inlet mfcc;
#X obj 367 57 inlet zcrF0;
#X obj 542 55 inlet kurtosis;
#X obj 690 59 inlet brightness;
#X floatatom 367 85 5 0 0 0 - - -, f 5;
#X floatatom 542 83 5 0 0 0 - - -, f 5;
#X floatatom 690 93 5 0 0 0 - - -, f 5;
#X floatatom 33 163 5 0 0 0 - - -, f 5;
#X floatatom 367 164 5 0 0 0 - - -, f 5;
#X floatatom 542 166 5 0 0 0 - - -, f 5;
#X obj 542 129 dt-linearMap 0 1 4 10;
#X floatatom 690 166 5 0 0 0 - - -, f 5;
#X obj 690 129 dt-linearMap 0 1 4 10;
#X obj 33 129 dt-linearMap 0 10000 50 2000;
#X obj 556 368 outlet grainSize;
#X obj 367 130 dt-linearMap 0 20000 0 20000;
#X connect 0 0 11 0;
#X connect 7 0 9 0;
#X connect 9 0 8 0;
#X connect 11 0 25 0;
#X connect 12 0 7 0;
#X connect 13 0 16 0;
#X connect 14 0 17 0;
#X connect 15 0 18 0;
#X connect 16 0 27 0;
#X connect 17 0 22 0;
#X connect 18 0 24 0;
#X connect 20 0 2 0;
#X connect 20 0 26 0;
#X connect 22 0 21 0;
#X connect 24 0 23 0;
#X connect 25 0 19 0;
#X connect 27 0 20 0;
