#N canvas 80 14 1276 691 10;
#X obj 33 58 inlet spectralCentroid;
#X obj 373 464 outlet readSpeed;
#X obj 211 463 outlet playSpeed;
#X floatatom 210 82 5 0 0 0 - - -, f 5;
#X floatatom 210 152 5 0 0 0 - - -, f 5;
#X floatatom 33 80 5 0 0 0 - - -, f 5;
#X obj 210 60 inlet mfcc;
#X obj 373 57 inlet zcrF0;
#X obj 542 57 inlet kurtosis;
#X obj 712 57 inlet brightness;
#X floatatom 373 79 5 0 0 0 - - -, f 5;
#X floatatom 542 77 5 0 0 0 - - -, f 5;
#X floatatom 712 79 5 0 0 0 - - -, f 5;
#X floatatom 33 151 5 0 0 0 - - -, f 5;
#X floatatom 373 152 5 0 0 0 - - -, f 5;
#X floatatom 542 152 5 0 0 0 - - -, f 5;
#X floatatom 712 151 5 0 0 0 - - -, f 5;
#X obj 537 461 outlet grainSize;
#X obj 542 263 +;
#X obj 542 212 t b f;
#X floatatom 542 287 5 0 0 0 - - -, f 5;
#X obj 33 129 dt-linearMap 0 3000 1 10;
#X obj 542 129 dt-linearMap 50 300 0 200;
#X obj 373 129 dt-linearMap 90 300 1 10000;
#X obj 712 128 dt-linearMap 0 0.4 0 1;
#X obj 756 250 /;
#X msg 713 220 1;
#X floatatom 649 382 5 0 0 0 - - -, f 5;
#X floatatom 756 272 5 0 0 0 - - -, f 5;
#X floatatom 756 321 5 0 0 0 - - -, f 5;
#X obj 756 300 dt-linearMap 5 200 0 200;
#X obj 649 357 dt-xfade 0.5 0.5;
#X msg 495 237 128;
#X floatatom 537 437 5 0 0 0 - - -, f 5;
#X obj 649 461 outlet drywet;
#X obj 649 431 median_n 10;
#X obj 537 411 median_n 10;
#X obj 649 403 dt-linearMap 64 250 0.1 0.6;
#X obj 210 129 dt-linearMap 0.65 1 1 256;
#X text 864 127 LinearMap scales the input values to a desired range
;
#X text 768 356 xfade computed a weighted average of the input parameters
;
#X text 815 431 median_n outputs the mean of 10 samples in order to
have smoother values;
#X connect 0 0 5 0;
#X connect 3 0 38 0;
#X connect 4 0 2 0;
#X connect 5 0 21 0;
#X connect 6 0 3 0;
#X connect 7 0 10 0;
#X connect 8 0 11 0;
#X connect 9 0 12 0;
#X connect 10 0 23 0;
#X connect 11 0 22 0;
#X connect 12 0 24 0;
#X connect 14 0 1 0;
#X connect 15 0 19 0;
#X connect 16 0 25 1;
#X connect 16 0 26 0;
#X connect 18 0 20 0;
#X connect 19 0 18 0;
#X connect 19 0 32 0;
#X connect 19 1 18 1;
#X connect 20 0 31 0;
#X connect 21 0 13 0;
#X connect 22 0 15 0;
#X connect 23 0 14 0;
#X connect 24 0 16 0;
#X connect 25 0 28 0;
#X connect 26 0 25 0;
#X connect 27 0 37 0;
#X connect 28 0 30 0;
#X connect 29 0 31 1;
#X connect 30 0 29 0;
#X connect 31 0 27 0;
#X connect 31 0 36 0;
#X connect 32 0 18 0;
#X connect 33 0 17 0;
#X connect 35 0 34 0;
#X connect 36 0 33 0;
#X connect 37 0 35 0;
#X connect 38 0 4 0;
