#N canvas 4 23 638 755 10;
#X obj 170 30 inlet trigger;
#X obj 68 29 inlet mfcc;
#X obj 118 248 readsf~;
#X obj 171 60 bng 15 250 50 0 empty empty empty 17 7 0 10 -262144 -1
-1;
#X obj 50 413 outlet~;
#X floatatom 171 106 5 0 0 0 - - -;
#X obj 171 81 random 3;
#X obj 168 139 sel 0 1 2;
#X msg 154 185 open sounds/bell1.wav \, 1;
#X msg 187 205 open sounds/bell2.wav \, 1;
#X msg 221 230 open sounds/bell3.wav \, 1;
#X floatatom 71 75 5 0 0 0 - - -;
#X obj 55 189 env;
#X obj 58 338 *~;
#X obj 167 280 readsf~;
#X obj 233 305 readsf~;
#X obj 410 30 inlet percType;
#X floatatom 391 103 5 0 0 0 - - -;
#X obj 204 336 *~ 0.5;
#X obj 114 274 *~ 1;
#X connect 0 0 3 0;
#X connect 1 0 11 0;
#X connect 2 0 19 0;
#X connect 3 0 6 0;
#X connect 6 0 5 0;
#X connect 7 0 8 0;
#X connect 7 1 9 0;
#X connect 7 2 10 0;
#X connect 8 0 2 0;
#X connect 9 0 14 0;
#X connect 10 0 15 0;
#X connect 11 0 12 0;
#X connect 12 0 13 0;
#X connect 13 0 4 0;
#X connect 14 0 13 1;
#X connect 15 0 18 0;
#X connect 16 0 7 0;
#X connect 16 0 17 0;
#X connect 18 0 13 1;
#X connect 19 0 13 1;
