#N canvas 393 144 450 300 10;
#X obj 170 30 inlet trigger;
#X obj 290 32 inlet envelope;
#X obj 68 19 inlet mfcc;
#X obj 54 132 readsf~;
#X msg 54 103 open sounds/dinnertable.wav \, 1;
#X obj 54 80 bng 15 250 50 0 empty empty empty 17 7 0 10 -262144 -1
-1;
#X obj 55 235 outlet~;
#X obj 49 182 dac~;
#X connect 0 0 5 0;
#X connect 3 0 7 0;
#X connect 3 0 7 1;
#X connect 4 0 3 0;
#X connect 5 0 4 0;
