#N canvas 555 40 638 691 10;
#X obj 59 44 inlet mfcc;
#X obj 86 208 readsf~;
#X obj 58 496 outlet~;
#X obj 168 116 sel 0 1 2;
#X msg 86 185 open sounds/bell1.wav \, 1;
#X msg 287 246 open sounds/bell2.wav \, 1;
#X msg 473 260 open sounds/bell3.wav \, 1;
#X floatatom 59 72 5 0 0 0 - - -, f 5;
#X obj 59 115 env;
#X obj 58 421 *~;
#X obj 287 270 readsf~;
#X obj 473 284 readsf~;
#X obj 168 45 inlet percType;
#X floatatom 168 72 5 0 0 0 - - -, f 5;
#X obj 473 309 *~ 0.5;
#X text 210 78 Triggers a sample according to the result of the clasiffication
;
#X text 12 7 an evelope is aplied to the sample;
#X obj 58 458 *~ 0.8;
#X connect 0 0 7 0;
#X connect 1 0 9 1;
#X connect 3 0 4 0;
#X connect 3 1 5 0;
#X connect 3 2 6 0;
#X connect 4 0 1 0;
#X connect 5 0 10 0;
#X connect 6 0 11 0;
#X connect 7 0 8 0;
#X connect 8 0 9 0;
#X connect 9 0 17 0;
#X connect 10 0 9 1;
#X connect 11 0 14 0;
#X connect 12 0 13 0;
#X connect 13 0 3 0;
#X connect 14 0 9 1;
#X connect 17 0 2 0;
