#N canvas 4 23 638 755 10;
#X obj 110 36 inlet in1;
#X obj 208 36 inlet in2;
#X obj 301 36 inlet a;
#X obj 392 35 inlet b;
#X obj 301 86 f \$1;
#X obj 395 85 f \$2;
#X obj 209 152 expr $f1*$f2 + $f3*$f4;
#X obj 212 66 t b f;
#X obj 319 59 loadbang;
#X obj 301 112 t b f;
#X obj 395 112 t b f;
#X obj 219 226 outlet xfade;
#X connect 0 0 6 0;
#X connect 1 0 7 0;
#X connect 2 0 4 0;
#X connect 3 0 5 0;
#X connect 4 0 9 0;
#X connect 5 0 10 0;
#X connect 6 0 11 0;
#X connect 7 0 6 0;
#X connect 7 1 6 2;
#X connect 8 0 4 0;
#X connect 8 0 5 0;
#X connect 9 0 6 0;
#X connect 9 1 6 1;
#X connect 10 0 6 0;
#X connect 10 1 6 3;
