#N canvas 707 118 529 450 10;
#X obj 65 163 inlet value;
#X obj 197 161 inlet var_range;
#X obj 318 162 inlet var_speed;
#X obj 156 282 random 5;
#X obj 140 199 loadbang;
#X obj 139 215 bng 15 250 50 0 empty empty empty 17 7 0 10 -262144
-1 -1;
#X obj 262 278 * 2;
#X obj 262 303 - 1;
#X floatatom 263 331 5 0 0 0 - - -;
#X obj 261 256 mod 2;
#X obj 156 304 * -1;
#X floatatom 266 367 5 0 0 0 - - -;
#X obj 156 329 t b f;
#X obj 155 258 metro 100;
#X obj 316 194 t b f;
#X obj 78 381 +;
#X obj 77 420 outlet noisy_value;
#X text 39 138 Value to modify;
#X text 192 137 Variation range;
#X text 319 138 Variation rate (ms);
#X connect 0 0 15 0;
#X connect 1 0 3 1;
#X connect 2 0 14 0;
#X connect 3 0 9 0;
#X connect 3 0 10 0;
#X connect 4 0 13 0;
#X connect 5 0 13 0;
#X connect 6 0 7 0;
#X connect 7 0 8 0;
#X connect 8 0 10 1;
#X connect 9 0 6 0;
#X connect 10 0 11 0;
#X connect 10 0 12 0;
#X connect 12 0 15 0;
#X connect 12 1 15 1;
#X connect 13 0 3 0;
#X connect 14 0 13 0;
#X connect 14 1 13 1;
#X connect 15 0 16 0;
